<?xml version="1.0" standalone="no"?>
<!DOCTYPE svg PUBLIC "-//W3C//DTD SVG 20010904//EN"
 "http://www.w3.org/TR/2001/REC-SVG-20010904/DTD/svg10.dtd">
<svg version="1.0" xmlns="http://www.w3.org/2000/svg"
 width="34.000000px" height="34.000000px" viewBox="0 0 1320.000000 1320.000000"
 preserveAspectRatio="xMidYMid meet">

<g transform="translate(0.000000,1320.000000) scale(0.100000,-0.100000)"
fill="#ffffff" stroke="none">
<path d="M7 13193 c-4 -3 -7 -2969 -7 -6590 l0 -6583 620 0 620 0 0 6590 0
6590 -613 0 c-338 0 -617 -3 -620 -7z"/>
<path d="M1500 6610 l0 -6590 620 0 620 0 0 6590 0 6590 -620 0 -620 0 0
-6590z"/>
<path d="M4500 6610 l0 -6590 620 0 620 0 0 6590 0 6590 -620 0 -620 0 0
-6590z"/>
<path d="M7490 6610 l0 -6590 620 0 620 0 -2 6588 -3 6587 -617 3 -618 2 0
-6590z"/>
<path d="M8980 6610 l0 -6590 620 0 620 0 -2 6588 -3 6587 -617 3 -618 2 0
-6590z"/>
<path d="M10470 6610 l0 -6590 620 0 620 0 -2 6588 -3 6587 -617 3 -618 2 0
-6590z"/>
<path d="M3000 2220 l0 -2200 620 0 620 0 0 2200 0 2200 -620 0 -620 0 0
-2200z"/>
<path d="M6000 2220 l0 -2200 620 0 620 0 -2 2197 -3 2198 -617 3 -618 2 0
-2200z"/>
<path d="M11960 2220 l0 -2200 620 0 620 0 -2 2197 -3 2198 -617 3 -618 2 0
-2200z"/>
</g>
</svg>
