
        <svg xmlns="http://www.w3.org/2000/svg" xmlns:xlink="http://www.w3.org/1999/xlink" version="1.1" width="3161.9676064787045" 
        height="1456.6096787243075" viewBox="0 0 3161.9676064787045 1456.6096787243075">
			
			<g transform="scale(8.098380323935213) translate(10, 10)">
				<defs id="SvgjsDefs4598"></defs><g id="SvgjsG4599" featureKey="symbolFeature-0" transform="matrix(3.1450780112203898,0,0,3.1450780112203898,0,-0.06296298752931444)" fill="#ffffff">    <title xmlns="http://www.w3.org/2000/svg">Asset 79LETTERS5</title>    <g xmlns="http://www.w3.org/2000/svg" id="Page-1" stroke="none" stroke-width="1" fill="none" fill-rule="evenodd">        <g id="Artboard" transform="translate(-4855.000000, -645.000000)" fill="#ffffff" fill-rule="nonzero">            <g id="Asset-79LETTERS5" transform="translate(4855.000000, 645.020000)">                <polygon id="Path" points="25.55 36.58 38.81 49.83 49.46 49.83 30.88 31.25 47.19 14.94 39.67 7.42 34.34 2.09 32.25 0 21.6 0 29.02 7.42 34.34 12.75 36.54 14.94 31.07 20.41 28.87 18.22 23.55 12.89 20.71 10.06 15.38 4.73 10.65 0 1.75 0 0 0 1.75 1.75 10.06 10.06 1.75 18.36 1.75 29.02 4.53 26.24 4.53 26.24 15.38 15.38 18.22 18.22 20.46 20.46 15.68 25.25 14.95 25.97 9.61 31.32 4.28 36.65 1.75 39.18 1.75 43.69 1.75 49.83 4.82 46.76 4.82 46.76 9.61 41.98 17.46 49.83 28.12 49.83 20.21 41.92 14.94 36.65 20.28 31.3"></polygon>            </g>        </g>    </g></g><g id="SvgjsG4600" featureKey="nameFeature-0" transform="matrix(1.9697557273956519,0,0,1.9697557273956519,168.1209770904174,-15.63706497173693)" fill="#ffffff"><path d="M17 26.8 l-10 0 l0 10.6 l10 0 c2.2 0 4 -1.8 4 -4 l0 -2.6 c0 -2.2 -1.8 -4 -4 -4 z M19.2 25 l0 0.2 s4.8 0.8 4.8 5.6 l0 2.6 c0 3.8 -2.8 6.6 -7 6.6 l-13 0 l0 -28 l11.6 0 c4.2 0 7 2.8 7 6.6 l0 1.6 c0 4 -3.4 4.8 -3.4 4.8 z M15.6 14.600000000000001 l-8.6 0 l0 9.6 l8.6 0 c2.2 0 4 -1.8 4 -4 l0 -1.6 c0 -2.2 -1.8 -4 -4 -4 z M47.305 40 l-13.6 -23 l-0.2 0 l0.4 5.2 l0 17.8 l-3 0 l0 -28 l3.2 0 l13.6 23 l0.2 0 l-0.4 -5.2 l0 -17.8 l3 0 l0 28 l-3.2 0 z M57.61000000000001 19.8 l0 -1.2 c0 -3.8 2.8 -6.6 7 -6.6 l11 0 l0 1.8 l-0.8 0.8 l-10.2 0 c-2.2 0 -4 1.8 -4 4 l0 1.2 c0 2.2 1.2 3.36 3.2 3.8 l7.4 1.6 c2.8 0.6 5 2.8 5 6.4 l0 1.8 c0 3.8 -2.8 6.6 -7 6.6 l-12 0 l0 -2.6 l12 0 c2.2 0 4 -1.8 4 -4 l0 -1.8 c0 -2.2 -1.2 -3.36 -3.2 -3.8 l-7.4 -1.6 c-2.8 -0.6 -5 -2.8 -5 -6.4 z  M85.915 12 l0 12.4 l6.6 0 l6.8 -12.4 l3 0 l0 1.2 l-7.4 12.4 l7.8 13.2 l0 1.2 l-3 0 l-7.2 -13 l-6.6 0 l0 13 l-3 0 l0 -28 l3 0 z"></path></g><g id="SvgjsG4601" featureKey="nameFeature-1" transform="matrix(2.641549284501708,0,0,2.641549284501708,165.43380286199317,42.358032330464525)" fill="#ffffff"><path d="M7 40 l-3 0 l0 -28 l12.4 0 c4.2 0 7 2.8 7 6.6 l0 5.4 c0 3.8 -2.8 6.6 -7 6.6 l-9.4 0 l0 9.4 z M16.4 14.600000000000001 l-9.4 0 l0 13.4 l9.4 0 c2.2 0 4 -1.8 4 -4 l0 -5.4 c0 -2.2 -1.8 -4 -4 -4 z M33.30500000000001 40 l-3 0 l0 -28 l12.4 0 c4.2 0 7 2.8 7 6.6 l0 3.8 c0 5.6 -5.4 6.4 -5.4 6.4 l6.2 10 l0 1.2 l-3 0 l-6.2 -11 l-8 0 l0 11 z M42.705 14.600000000000001 l-9.4 0 l0 11.8 l9.4 0 c2.2 0 4 -1.8 4 -4 l0 -3.8 c0 -2.2 -1.8 -4 -4 -4 z M56.61000000000001 33.8 l0 -15.6 c0 -3.8 2.8 -6.6 7 -6.6 l7 0 c4.2 0 7 2.8 7 6.6 l0 15.6 c0 3.8 -2.8 6.6 -7 6.6 l-7 0 c-4.2 0 -7 -2.8 -7 -6.6 z M74.61 33.8 l0 -15.6 c0 -2.2 -1.8 -4 -4 -4 l-7 0 c-2.2 0 -4 1.8 -4 4 l0 15.6 c0 2.2 1.8 4 4 4 l7 0 c2.2 0 4 -1.8 4 -4 z"></path></g>
			</g>
		</svg>
	